<?xml version="1.0" standalone="no"?>
<!DOCTYPE svg PUBLIC "-//W3C//DTD SVG 20010904//EN"
 "http://www.w3.org/TR/2001/REC-SVG-20010904/DTD/svg10.dtd">
<svg version="1.0" xmlns="http://www.w3.org/2000/svg"
 width="400.000000pt" height="400.000000pt" viewBox="0 0 400.000000 400.000000"
 preserveAspectRatio="xMidYMid meet">

<g transform="translate(0.000000,400.000000) scale(0.100000,-0.100000)"
fill="#000000" stroke="none">
<path d="M2616 3900 c-115 -35 -176 -160 -130 -268 38 -92 122 -136 241 -125
57 5 68 4 79 -12 23 -31 16 -44 -28 -56 -24 -6 -46 -16 -50 -23 -15 -22 -8
-65 15 -92 19 -21 33 -27 68 -28 39 -1 44 2 47 23 3 15 -3 30 -13 37 -23 17
-10 34 26 34 69 0 119 49 119 116 0 94 -112 142 -219 94 -73 -34 -101 -23
-101 40 0 41 37 84 82 95 36 9 54 -22 32 -53 -14 -21 -14 -22 15 -22 42 0 71
40 71 96 0 38 -6 50 -39 83 -57 57 -145 82 -215 61z"/>
<path d="M483 3390 c-36 -22 -60 -82 -49 -125 l7 -27 24 26 c47 51 115 23 115
-47 0 -61 -28 -88 -120 -117 -78 -23 -115 -57 -128 -117 -26 -114 47 -214 193
-268 133 -49 157 -108 115 -281 -35 -146 -97 -254 -155 -268 -62 -16 -152 77
-170 177 -11 56 5 70 72 61 45 -5 57 -3 75 12 27 25 48 75 48 116 0 93 -124
142 -180 71 -28 -36 -26 -40 23 -39 39 1 42 -1 45 -27 6 -47 -14 -60 -79 -53
-70 7 -90 -10 -97 -82 -7 -75 19 -142 113 -302 98 -166 105 -197 47 -214 -48
-13 -67 -46 -53 -88 6 -18 21 -42 32 -54 11 -12 23 -34 28 -50 5 -23 88 -92
384 -324 l377 -295 -56 -18 c-93 -28 -221 -39 -330 -26 -53 5 -98 8 -101 5 -7
-7 2 -10 117 -35 216 -48 378 -145 440 -261 65 -122 -2 -262 -180 -381 -37
-25 -21 -30 35 -13 28 8 106 27 175 41 164 34 432 39 545 9 100 -26 173 -63
228 -115 56 -52 78 -90 86 -144 3 -21 10 -39 14 -40 5 -1 17 23 28 53 59 170
236 330 443 401 179 62 443 74 709 34 59 -9 113 -15 120 -12 7 2 -17 18 -53
36 -86 43 -150 105 -150 146 0 45 31 88 102 138 109 77 282 150 431 182 51 10
30 26 -26 18 -87 -12 -377 -9 -442 5 -78 17 -185 54 -185 64 0 4 113 150 250
325 138 175 253 329 257 342 12 47 -9 74 -124 155 l-112 79 35 32 c39 37 45
82 19 156 -19 53 -13 83 20 105 25 17 75 13 75 -6 0 -15 -40 -32 -61 -27 -28
8 -31 -7 -6 -31 21 -19 42 -26 80 -23 57 4 79 102 31 140 -33 26 -109 28 -142
5 -13 -9 -26 -14 -29 -11 -5 6 55 51 105 79 41 22 63 59 69 112 7 58 -18 98
-101 166 -66 53 -97 97 -73 104 6 3 35 7 63 10 73 7 117 28 150 72 27 35 29
44 29 128 0 80 -3 98 -28 146 -78 151 -211 206 -324 133 -76 -49 -95 -125 -47
-182 45 -54 143 -49 174 8 9 18 6 22 -27 36 -50 21 -73 43 -73 71 0 45 83 61
119 22 31 -33 44 -84 38 -154 -11 -141 -92 -179 -204 -99 -148 107 -201 119
-259 61 -34 -34 -39 -52 -34 -121 3 -47 22 -74 114 -164 47 -47 93 -100 102
-119 29 -62 0 -142 -53 -142 -62 0 -87 53 -34 71 59 21 3 79 -76 79 -50 0
-101 -32 -119 -75 -31 -76 40 -148 151 -152 84 -3 104 -10 116 -40 22 -59 -6
-86 -65 -64 -31 12 -46 -4 -53 -57 l-5 -39 -416 294 c-228 162 -425 299 -438
305 -52 24 -60 15 -426 -467 -289 -381 -354 -472 -356 -501 -3 -31 -6 -35 -25
-31 -12 3 -111 -5 -219 -17 l-198 -22 0 20 c-1 34 -35 99 -70 131 -34 32 -60
75 -60 99 0 8 12 27 27 41 l28 25 -24 0 c-36 0 -87 -36 -105 -74 -20 -43 -20
-75 0 -126 30 -75 -12 -96 -72 -36 -28 28 -34 42 -34 75 0 61 18 96 107 203
139 166 178 257 171 392 -8 140 -74 238 -214 321 -96 57 -124 87 -124 132 0
34 5 41 53 76 67 50 86 127 48 197 -38 72 -149 103 -218 60z m2143 -823 c333
-237 434 -314 444 -337 27 -65 169 -160 239 -160 10 0 76 -42 147 -93 102 -73
130 -98 132 -118 3 -21 -36 -76 -195 -280 -109 -140 -274 -351 -367 -469 -92
-118 -176 -218 -187 -222 -10 -4 -26 -5 -34 -2 -8 3 -248 177 -532 385 -912
667 -843 615 -843 648 0 23 72 124 336 473 185 243 347 454 362 466 15 14 34
22 46 20 12 -3 215 -143 452 -311z m-1224 -701 c15 -8 256 -183 535 -388 280
-206 583 -428 675 -494 92 -65 167 -125 168 -131 0 -7 -2 -13 -4 -13 -3 0
-200 -49 -439 -110 -238 -60 -439 -110 -445 -110 -15 0 -253 179 -906 684
-482 372 -518 401 -488 404 26 3 39 -3 67 -34 l35 -37 77 5 c99 6 190 44 239
101 19 23 34 45 34 51 1 34 21 40 207 62 103 12 195 22 203 23 8 0 27 -6 42
-13z m1765 -755 c100 -34 271 -56 384 -49 39 2 63 0 53 -4 -138 -54 -186 -78
-263 -129 -174 -115 -187 -199 -46 -301 33 -24 35 -29 15 -24 -108 25 -364 32
-505 15 -296 -36 -543 -190 -647 -403 -25 -53 -33 -56 -42 -20 -4 15 -35 55
-69 89 -48 47 -79 69 -138 93 -180 74 -430 81 -710 18 l-98 -22 55 52 c95 92
131 212 91 306 -21 49 -96 129 -159 170 -28 17 -87 46 -131 64 -77 31 -79 33
-46 37 109 16 176 30 214 43 l44 14 333 -261 c183 -143 343 -266 356 -271 26
-13 146 15 617 143 310 85 318 88 331 155 4 22 15 35 37 45 21 9 68 60 132
141 55 70 101 127 102 127 1 1 41 -12 90 -28z"/>
<path d="M1908 2320 c-167 -220 -303 -404 -303 -410 0 -5 261 -201 580 -434
544 -399 581 -424 596 -408 34 35 629 802 629 810 0 10 9 3 -651 470 -290 205
-531 372 -537 372 -6 0 -147 -180 -314 -400z m363 349 c15 -11 31 -36 38 -61
7 -24 14 -51 17 -60 4 -15 -2 -16 -51 -11 l-55 6 1 -29 c0 -16 4 -50 8 -76 7
-41 6 -46 -8 -39 -9 4 -49 23 -88 41 -40 19 -73 37 -73 40 0 4 36 55 80 114
52 68 85 104 93 100 7 -4 24 -15 38 -25z m443 -314 l354 -250 46 -150 c26 -82
46 -155 46 -161 0 -11 -68 -61 -89 -66 -6 -2 -24 20 -40 47 l-29 50 26 28 c18
19 21 27 11 27 -9 0 -26 -11 -38 -24 l-22 -24 31 -62 c17 -34 30 -63 28 -65
-12 -11 -207 -135 -212 -135 -3 0 -6 9 -6 19 0 11 -4 23 -10 26 -15 9 -12 -20
9 -118 l19 -87 -21 -5 c-36 -8 -201 -35 -214 -35 -11 0 -22 26 -43 109 l-11
43 -107 -7 c-147 -9 -160 -28 -17 -23 l110 3 20 -74 20 -73 52 6 52 6 5 -32
c11 -69 26 -201 23 -204 -1 -2 -162 114 -357 257 -195 143 -437 319 -537 392
-100 73 -182 136 -183 140 0 4 73 104 162 222 l163 214 106 26 107 27 40 -21
c25 -13 43 -17 47 -11 3 5 1 35 -4 67 -17 89 -19 86 44 78 63 -7 67 -1 40 75
-15 42 -15 42 5 29 11 -8 180 -126 374 -264z m-621 83 l42 -21 -70 -18 c-38
-10 -73 -17 -78 -16 -7 2 50 77 59 77 3 0 24 -10 47 -22z m1224 -511 c47 -32
70 -54 64 -61 -306 -393 -404 -515 -411 -511 -4 2 -10 19 -14 36 -6 30 -7 31
-53 27 l-47 -3 -13 64 c-7 35 -12 65 -11 66 2 2 83 55 181 119 114 74 177 121
174 130 -10 26 -87 274 -87 280 0 4 33 -17 73 -45 39 -28 105 -74 144 -102z
m-372 -566 c4 -22 3 -46 -2 -54 -20 -33 -177 -227 -183 -227 -19 0 -29 35 -43
150 -9 69 -13 127 -11 130 6 5 176 37 211 39 17 1 22 -6 28 -38z"/>
<path d="M2387 2279 c-384 -400 -406 -426 -377 -444 11 -7 648 -155 667 -155
8 0 16 6 19 14 7 18 -202 626 -222 646 -13 13 -23 6 -87 -61z m48 -179 c31
-11 49 -23 47 -31 -5 -22 -76 -128 -89 -133 -26 -11 -41 20 -47 102 -6 81 -6
82 16 81 13 0 46 -9 73 -19z m-45 -200 c11 -11 20 -27 20 -35 0 -8 -9 -24 -20
-35 -11 -11 -27 -20 -35 -20 -8 0 -24 9 -35 20 -11 11 -20 27 -20 35 0 8 9 24
20 35 11 11 27 20 35 20 8 0 24 -9 35 -20z"/>
<path d="M1157 1774 c-115 -12 -211 -25 -215 -28 -3 -4 -1 -10 4 -15 5 -5 261
-198 568 -430 512 -386 561 -421 590 -416 17 3 118 16 225 30 107 14 197 27
199 30 3 3 1 9 -4 14 -15 14 -1109 808 -1135 823 -21 13 -48 12 -232 -8z m768
-404 c303 -220 551 -404 553 -409 2 -5 -16 -11 -40 -13 -43 -4 -45 -3 -584
388 -297 215 -550 398 -562 405 -34 21 -26 29 31 29 l52 0 550 -400z m-126
-20 c416 -301 554 -407 541 -412 -9 -3 -36 -8 -60 -9 -42 -3 -50 2 -596 406
-463 344 -549 411 -531 417 65 19 68 17 646 -402z m-153 -11 c305 -227 552
-414 549 -417 -3 -3 -30 -9 -61 -13 l-57 -8 -366 277 c-201 151 -449 339 -551
416 l-185 141 50 6 c28 3 53 7 58 7 4 1 257 -183 563 -409z"/>
<path d="M1188 1373 c-60 -9 -108 -19 -108 -24 0 -8 92 -83 267 -218 l82 -64
88 17 c49 9 100 19 116 22 15 3 27 9 27 14 0 9 -347 270 -357 269 -5 -1 -56
-8 -115 -16z m263 -113 c81 -61 152 -117 158 -124 9 -10 -8 -16 -80 -29 -51
-9 -97 -14 -103 -10 -37 22 -305 237 -300 242 3 3 42 11 87 17 45 6 84 12 86
13 2 0 70 -49 152 -109z"/>
<path d="M2522 898 c-18 -18 -15 -36 8 -48 40 -22 105 15 80 45 -15 18 -71 20
-88 3z m68 -17 c0 -13 -27 -21 -45 -15 -8 4 -12 10 -9 15 7 12 54 12 54 0z"/>
</g>
</svg>
