<?xml version="1.0" standalone="no"?>
<!DOCTYPE svg PUBLIC "-//W3C//DTD SVG 20010904//EN"
 "http://www.w3.org/TR/2001/REC-SVG-20010904/DTD/svg10.dtd">
<svg version="1.0" xmlns="http://www.w3.org/2000/svg"
 width="400.000000pt" height="400.000000pt" viewBox="0 0 400.000000 400.000000"
 preserveAspectRatio="xMidYMid meet">

<g transform="translate(0.000000,400.000000) scale(0.100000,-0.100000)"
fill="#000000" stroke="none">
<path d="M2779 3198 c57 -55 89 -126 109 -238 10 -60 20 -90 29 -90 8 0 13 12
13 28 0 39 -35 173 -56 214 -21 43 -72 96 -109 115 -27 13 -25 10 14 -29z"/>
<path d="M2570 3173 c-16 -16 -45 -57 -65 -93 l-35 -65 35 40 c19 22 50 57 69
78 84 95 201 9 237 -175 15 -77 33 -76 26 0 -6 75 -47 161 -97 206 -35 31 -47
36 -90 36 -40 0 -55 -5 -80 -27z"/>
<path d="M2373 3114 c-41 -20 -44 -39 -5 -29 15 5 45 11 66 14 22 3 41 12 44
19 6 18 -66 15 -105 -4z"/>
<path d="M2551 3050 c-31 -33 -67 -64 -81 -69 l-25 -10 29 0 c22 -1 42 13 89
59 34 33 69 60 78 60 26 0 55 -43 79 -116 15 -44 26 -62 32 -56 16 16 -17 112
-52 155 -48 57 -79 52 -149 -23z"/>
<path d="M2352 3043 c-35 -17 -66 -64 -60 -91 3 -12 9 -8 22 16 11 22 32 40
62 53 25 10 42 23 39 29 -9 14 -25 12 -63 -7z"/>
<path d="M2634 3039 c-3 -6 -25 -20 -48 -30 l-41 -19 32 0 c22 0 43 9 65 30
24 22 29 29 16 30 -9 0 -20 -5 -24 -11z"/>
<path d="M2345 2947 c-30 -26 -43 -87 -26 -129 17 -45 33 -34 26 16 -5 30 -2
52 8 71 13 26 15 20 20 -96 6 -141 28 -222 78 -282 39 -47 96 -77 148 -77 37
0 51 -11 51 -41 0 -15 -79 -10 -106 7 -34 23 -243 22 -329 -1 -188 -49 -310
-166 -395 -379 -18 -43 -34 -94 -37 -112 -5 -29 -3 -34 15 -34 38 0 52 -11 52
-41 0 -35 -7 -36 -68 -5 -85 43 -255 98 -287 93 -16 -3 -196 -79 -400 -170
-406 -181 -565 -256 -565 -267 0 -4 28 -14 62 -24 33 -9 57 -21 52 -25 -5 -5
-44 -21 -87 -36 -56 -20 -86 -38 -108 -63 -48 -54 -100 -139 -136 -222 l-32
-75 -88 -45 c-48 -25 -87 -49 -85 -55 2 -5 58 -25 125 -43 242 -65 946 -241
1117 -280 l175 -39 5 -64 5 -64 75 3 c76 3 211 19 218 27 3 2 -10 23 -27 47
l-32 43 33 7 c127 28 459 62 768 78 396 21 529 30 553 39 13 5 61 40 108 78
46 38 207 170 358 293 297 242 294 238 185 239 l-50 1 -12 78 c-17 105 -59
191 -127 257 -75 74 -114 85 -209 61 -39 -11 -78 -21 -86 -23 -8 -3 12 21 44
51 33 31 56 59 53 63 -4 3 -69 -1 -145 -10 -230 -29 -463 -100 -653 -200 -151
-79 -158 -94 -11 -23 215 103 481 181 692 201 l65 6 -105 -102 c-113 -110
-324 -300 -463 -417 l-87 -74 -106 -9 c-275 -24 -588 -126 -810 -264 -89 -56
-122 -92 -44 -48 315 176 469 229 799 274 l153 21 107 85 c122 99 211 176 366
318 106 97 113 102 181 118 116 27 126 23 60 -23 -217 -152 -606 -473 -606
-500 0 -6 23 -21 51 -35 28 -15 71 -45 96 -68 44 -41 103 -117 103 -134 0 -5
-80 -22 -177 -38 -217 -36 -203 -44 24 -15 91 11 167 19 169 18 8 -8 27 -98
22 -103 -3 -3 -180 -21 -394 -40 -472 -42 -769 -72 -888 -90 -80 -12 -92 -16
-113 -44 -14 -17 -30 -31 -36 -31 -7 0 -25 16 -42 36 -33 39 27 21 -941 286
l-372 101 35 81 c45 107 88 179 143 237 l45 49 60 -21 c33 -11 116 -47 183
-79 201 -97 369 -203 619 -391 134 -101 177 -126 142 -82 -20 24 -232 181
-346 256 -215 141 -422 251 -566 302 -86 31 -86 30 17 66 l68 23 92 -49 c346
-185 633 -369 818 -525 21 -17 41 -29 45 -27 5 3 10 101 11 219 2 117 6 215 8
217 2 2 20 -6 40 -18 20 -12 37 -21 38 -19 20 29 56 102 65 131 7 20 15 37 18
37 3 0 14 -11 25 -26 29 -37 67 -30 93 18 25 46 48 58 97 45 54 -14 68 -5 61
37 -8 49 9 67 60 64 39 -3 43 -1 62 37 26 51 27 52 32 37 3 -7 18 -20 35 -28
25 -13 32 -14 39 -2 5 7 9 17 9 22 0 5 10 25 22 44 l22 36 7 -34 c4 -19 10
-66 13 -105 l6 -70 -162 -130 c-189 -152 -475 -392 -484 -407 -7 -11 591 467
639 510 20 19 27 35 27 61 0 40 -27 201 -35 209 -9 9 -41 -27 -61 -68 -10 -22
-23 -40 -28 -40 -6 0 -22 12 -37 26 l-27 26 -27 -53 c-15 -30 -29 -55 -30 -57
-1 -1 -14 3 -28 9 -22 10 -31 9 -52 -5 -20 -13 -25 -25 -25 -57 l0 -41 -50 7
c-58 8 -69 2 -107 -58 l-25 -39 -33 32 c-18 18 -38 31 -45 28 -6 -2 -24 -35
-41 -73 -16 -38 -33 -73 -39 -79 -6 -6 -23 -3 -50 9 -22 10 -42 16 -44 14 -3
-2 -8 -100 -12 -216 l-7 -212 -59 54 c-165 148 -692 459 -926 545 l-74 27 49
20 c26 11 239 105 473 208 l425 187 49 -13 c196 -48 388 -167 467 -290 34 -52
46 -57 35 -15 -8 31 -105 138 -152 166 -29 19 -34 27 -34 61 0 32 4 39 19 39
29 0 201 -58 236 -80 l32 -20 7 77 c3 42 6 104 6 138 0 55 -4 66 -33 101 -73
88 -74 99 -2 33 l45 -42 0 31 c0 17 5 34 10 37 7 4 8 -70 4 -225 l-7 -231 26
10 c21 8 31 6 53 -12 20 -16 29 -18 32 -8 8 25 64 81 81 81 25 0 40 -39 53
-134 6 -45 12 -82 13 -84 2 -2 27 12 56 31 210 134 529 244 767 263 70 6 83
10 79 23 -3 9 -47 124 -98 256 -109 286 -114 319 -61 402 41 63 51 114 29 147
-27 40 -93 42 -119 2 -15 -22 -8 -26 12 -6 26 26 46 25 75 -4 27 -27 24 -52
-11 -113 -16 -27 -25 -33 -55 -33 -69 0 -153 -22 -176 -47 -12 -13 -26 -23
-32 -23 -5 0 -21 51 -35 114 l-27 113 36 36 c28 28 35 42 35 75 0 65 -58 97
-137 76 -41 -11 -24 -24 31 -24 96 0 113 -47 42 -116 -25 -23 -41 -44 -35 -46
5 -2 20 -53 33 -115 12 -62 28 -119 35 -127 10 -12 6 -20 -29 -45 -23 -16 -57
-35 -77 -42 -49 -16 -134 -7 -174 19 l-34 22 49 0 48 0 -6 35 c-6 32 -4 35 26
48 40 17 97 73 105 105 7 30 -6 42 -19 17 -36 -65 -128 -114 -192 -101 -100
20 -158 115 -181 296 -8 63 -17 125 -20 138 -4 15 0 24 10 28 8 4 15 10 15 15
0 17 -39 9 -65 -14z m1211 -1299 c79 -75 128 -177 132 -277 l3 -76 -256 -220
c-141 -121 -274 -235 -295 -253 l-38 -32 -16 54 c-9 30 -16 57 -16 60 0 3 75
70 168 149 92 80 174 153 182 163 38 47 -71 -38 -285 -225 -38 -33 -73 -61
-77 -61 -3 0 -18 20 -32 44 -32 55 -99 115 -171 152 -30 16 -55 32 -55 35 0
29 649 537 688 538 7 1 38 -22 68 -51z"/>
<path d="M3395 1438 c-60 -50 -167 -136 -237 -191 -70 -55 -126 -103 -123
-105 10 -10 475 361 475 379 0 5 -1 9 -2 9 -2 0 -52 -41 -113 -92z"/>
<path d="M3429 1339 c-168 -134 -185 -148 -159 -134 27 15 319 236 326 246 20
32 -20 5 -167 -112z"/>
<path d="M3053 2949 c-18 -5 -35 -14 -38 -19 -8 -12 -5 -12 75 1 35 5 74 8 87
4 26 -6 47 -43 57 -97 8 -45 26 -50 26 -8 0 41 -28 108 -51 120 -22 12 -113
11 -156 -1z"/>
<path d="M2575 2934 c-20 -20 -11 -32 10 -14 13 11 21 9 46 -9 40 -29 53 -17
16 15 -33 28 -50 30 -72 8z"/>
<path d="M3010 2900 c8 -5 41 -10 73 -10 44 0 62 -5 77 -20 11 -11 20 -25 20
-31 0 -5 5 -7 10 -4 16 10 12 24 -15 50 -21 22 -33 25 -102 25 -54 0 -73 -3
-63 -10z"/>
<path d="M2412 2883 c-10 -20 -5 -43 9 -43 5 0 9 9 9 20 0 17 3 19 19 10 33
-17 46 -12 26 10 -22 25 -51 26 -63 3z"/>
<path d="M2604 2856 c-6 -17 11 -46 28 -46 14 0 5 53 -9 58 -7 2 -16 -4 -19
-12z"/>
<path d="M2505 2796 c8 -68 20 -106 34 -106 6 0 23 12 38 26 l28 26 -32 -6
c-30 -5 -32 -4 -43 42 -18 76 -32 87 -25 18z"/>
<path d="M2440 2785 c0 -15 6 -25 14 -25 19 0 28 14 20 34 -10 25 -34 19 -34
-9z"/>
<path d="M3081 2790 c-58 -27 -47 -36 18 -14 52 17 58 16 150 -12 36 -11 16
15 -25 32 -46 19 -91 17 -143 -6z"/>
<path d="M3086 2729 c-32 -25 -27 -38 6 -15 33 23 80 20 122 -9 43 -29 46 -30
46 -10 0 24 -60 55 -106 55 -27 0 -51 -7 -68 -21z"/>
<path d="M3326 2648 c-25 -121 -12 -195 47 -271 23 -29 111 -132 196 -229 265
-304 296 -354 296 -483 0 -72 -3 -86 -33 -137 -18 -32 -28 -58 -23 -58 21 0
71 77 82 126 25 112 -13 224 -122 358 -35 43 -73 89 -83 101 -18 22 -18 25 -3
49 10 14 17 32 17 40 0 26 -110 153 -181 210 -39 30 -92 66 -119 78 -47 22
-50 25 -61 77 -6 30 -8 79 -5 108 6 53 1 73 -8 31z"/>
<path d="M2595 2624 c-18 -19 -4 -44 24 -44 23 0 61 28 61 46 0 20 -64 19 -85
-2z"/>
<path d="M480 1266 c0 -2 46 -21 103 -41 112 -41 253 -109 374 -181 64 -37 73
-41 53 -19 -32 34 -166 115 -263 159 -108 50 -267 98 -267 82z"/>
<path d="M685 1046 c254 -88 294 -103 507 -195 174 -74 236 -92 133 -39 -158
82 -439 191 -677 263 -82 25 -155 45 -161 44 -7 0 83 -33 198 -73z"/>
<path d="M2364 965 c-128 -24 -333 -79 -449 -119 -92 -32 -72 -33 30 -1 98 31
379 88 540 111 66 9 124 20 130 25 17 17 -129 8 -251 -16z"/>
<path d="M843 920 c55 -16 133 -40 174 -55 42 -14 78 -24 81 -21 9 10 -103 49
-230 81 -131 34 -146 31 -25 -5z"/>
<path d="M1714 918 l-19 -23 23 19 c21 18 27 26 19 26 -2 0 -12 -10 -23 -22z"/>
<path d="M1810 810 c-8 -5 -10 -10 -5 -10 6 0 17 5 25 10 8 5 11 10 5 10 -5 0
-17 -5 -25 -10z"/>
<path d="M2270 793 c-58 -6 -482 -63 -518 -69 -63 -12 -24 -14 64 -5 49 6 186
20 304 31 276 26 310 31 310 41 0 9 -88 10 -160 2z"/>
</g>
</svg>
